<?xml version="1.0" encoding="utf-8"?>
<!-- Generator: Adobe Illustrator 16.0.0, SVG Export Plug-In . SVG Version: 6.00 Build 0)  -->
<!DOCTYPE svg PUBLIC "-//W3C//DTD SVG 1.1//EN" "http://www.w3.org/Graphics/SVG/1.1/DTD/svg11.dtd">
<svg version="1.1" id="Layer_1" xmlns="http://www.w3.org/2000/svg" xmlns:xlink="http://www.w3.org/1999/xlink" x="0px" y="0px"
	 width="700px" height="500px" viewBox="0 0 700 500" enable-background="new 0 0 700 500" xml:space="preserve">
<rect x="0" y="0" fill="#FFFFFF" width="700" height="500"/>
<g>
	<g>
		<g>
			<g>
				<path stroke="#EBF0F8" d="M376.33,100v78.5"/>
				<path stroke="#EBF0F8" d="M465.66,100v78.5"/>
				<path stroke="#EBF0F8" d="M554.99,100v78.5"/>
			</g>
		</g>
		<g>
			<path stroke="#EBF0F8" stroke-width="2" d="M287,100v77.167"/>
		</g>
		<path stroke="#EBF0F8" stroke-width="2" d="M0,0"/>
		<path stroke="#EBF0F8" stroke-width="2" d="M0,0"/>
		<g>
			<g>
				<g>
					<defs>
						<rect id="SVGID_1_" x="861" y="300" width="333" height="79.666"/>
					</defs>
					<clipPath id="SVGID_2_">
						<use xlink:href="#SVGID_1_"  overflow="visible"/>
					</clipPath>
					<g transform="translate(287, 100)" clip-path="url(#SVGID_2_)">
						<g>
							<g opacity="0.6">
								<g>
									<g>
										<path fill="#9ECAE1" stroke="#FFFFFF" stroke-width="1.5" d="M0,74.67V62.48h55.07v12.19H0z"/>
									</g>
									<g>
										<path fill="#9ECAE1" stroke="#FFFFFF" stroke-width="1.5" d="M0,59.43V47.24H66.93v12.19H0z"/>
									</g>
									<g>
										<path fill="#9ECAE1" stroke="#FFFFFF" stroke-width="1.5" d="M0,44.19V32h69.58V44.19H0z"/>
									</g>
									<g>
										<path fill="#9ECAE1" stroke="#FFFFFF" stroke-width="1.5" d="M0,28.95V16.76H169.85v12.19H0z"/>
									</g>
									<g>
										<path fill="#9ECAE1" stroke="#FFFFFF" stroke-width="1.5" d="M0,13.71V1.52H316.35v12.19H0z"/>
									</g>
								</g>
							</g>
						</g>
					</g>
				</g>
			</g>
		</g>
		<path fill="none" d="M0,0"/>
		<path fill="none" d="M0,0"/>
		<g>
			<g>
				<text transform="matrix(1 0 0 1 283.1868 191.6672)" fill="#2A3F5F" font-family="'Verdana'" font-size="12">0</text>
			</g>
			<g>
				<text transform="matrix(1 0 0 1 367.4587 191.6672)" fill="#2A3F5F" font-family="'Verdana'" font-size="12">5M</text>
			</g>
			<g>
				<text transform="matrix(1 0 0 1 452.9744 191.6672)" fill="#2A3F5F" font-family="'Verdana'" font-size="12">10M</text>
			</g>
			<g>
				<text transform="matrix(1 0 0 1 542.3044 191.6672)" fill="#2A3F5F" font-family="'Verdana'" font-size="12">15M</text>
			</g>
		</g>
		<g>
			<g>
				<text transform="matrix(1 0 0 1 152.1379 172.7698)" fill="#2A3F5F" font-family="'Verdana'" font-size="12">Neurological disorders</text>
			</g>
			<g>
				<text transform="matrix(1 0 0 1 52.551 157.5295)" fill="#2A3F5F" font-family="'Verdana'" font-size="12">Respiratory infections and tuberculosis</text>
			</g>
			<g>
				<text transform="matrix(1 0 0 1 115.3752 142.3)" fill="#2A3F5F" font-family="'Verdana'" font-size="12">Chronic respiratory diseases</text>
			</g>
			<g>
				<text transform="matrix(1 0 0 1 220.4402 127.0598)" fill="#2A3F5F" font-family="'Verdana'" font-size="12">Neoplasms</text>
			</g>
			<g>
				<text transform="matrix(1 0 0 1 142.2878 111.8196)" fill="#2A3F5F" font-family="'Verdana'" font-size="12">Cardiovascular diseases</text>
			</g>
		</g>
	</g>
</g>
<g>
	<g>
		<text transform="matrix(1 0 0 1 35.0002 50.0002)" fill="#2A3F5F" font-family="'Verdana'" font-size="17">Deaths</text>
	</g>
</g>
<g>
	<path fill="#9ECAE1" stroke="#FFFFFF" stroke-width="1.5" d="M289,175.159v-12.19h55.07v12.19H289z"/>
</g>
<g>
	<path fill="#9ECAE1" stroke="#FFFFFF" stroke-width="1.5" d="M289,159.919v-12.19h66.932v12.19H289z"/>
</g>
<g>
	<path fill="#9ECAE1" stroke="#FFFFFF" stroke-width="1.5" d="M289,144.678v-12.189h69.58v12.189H289z"/>
</g>
<g>
	<path fill="#9ECAE1" stroke="#FFFFFF" stroke-width="1.5" d="M289,129.439V117.25H458.85v12.189H289z"/>
</g>
<g>
	<path fill="#9ECAE1" stroke="#FFFFFF" stroke-width="1.5" d="M289,114.198v-12.189H605.35v12.189H289z"/>
</g>
</svg>
