<?xml version="1.0" encoding="utf-8"?>
<!-- Generator: Adobe Illustrator 16.0.0, SVG Export Plug-In . SVG Version: 6.00 Build 0)  -->
<!DOCTYPE svg PUBLIC "-//W3C//DTD SVG 1.1//EN" "http://www.w3.org/Graphics/SVG/1.1/DTD/svg11.dtd">
<svg version="1.1" id="Layer_1" xmlns="http://www.w3.org/2000/svg" xmlns:xlink="http://www.w3.org/1999/xlink" x="0px" y="0px"
	 width="700px" height="500px" viewBox="0 0 700 500" enable-background="new 0 0 700 500" xml:space="preserve">
<rect x="0" y="0" fill="#FFFFFF" width="700" height="500"/>
<g>
	<g>
		<g>
			<g>
				<path stroke="#EBF0F8" d="M373.86,100v76.172"/>
				<path stroke="#EBF0F8" d="M460.73,100v76.172"/>
				<path stroke="#EBF0F8" d="M547.592,100v76.172"/>
			</g>
		</g>
		<g>
			<path stroke="#EBF0F8" stroke-width="2" d="M287,100v76.172"/>
		</g>
		<path stroke="#EBF0F8" stroke-width="2" d="M0,0"/>
		<path stroke="#EBF0F8" stroke-width="2" d="M0,0"/>
		<g>
			<g>
				<defs>
					<rect id="SVGID_1_" x="574" y="200" width="333" height="320"/>
				</defs>
				<clipPath id="SVGID_2_">
					<use xlink:href="#SVGID_1_"  overflow="visible"/>
				</clipPath>
				<g transform="translate(287, 100)" clip-path="url(#SVGID_2_)">
					<g>
						<g opacity="0.6">
							<g>
								<g>
									<path fill="#9ECAE1" stroke="#FFFFFF" stroke-width="1.5" d="M0,74.67V62.48H120.06v12.19H0z"/>
								</g>
								<g>
									<path fill="#9ECAE1" stroke="#FFFFFF" stroke-width="1.5" d="M0,59.43V47.24h138.712v12.19H0z"/>
								</g>
								<g>
									<path fill="#9ECAE1" stroke="#FFFFFF" stroke-width="1.5" d="M0,44.19V32h171.36V44.19H0z"/>
								</g>
								<g>
									<path fill="#9ECAE1" stroke="#FFFFFF" stroke-width="1.5" d="M0,28.95V16.76h201.79v12.19H0z"/>
								</g>
								<g>
									<path fill="#9ECAE1" stroke="#FFFFFF" stroke-width="1.5" d="M0,13.71V1.52H316.35v12.19H0z"/>
								</g>
							</g>
						</g>
					</g>
				</g>
			</g>
		</g>
		<path fill="none" d="M0,0"/>
		<path fill="none" d="M0,0"/>
		<g>
			<g>
				<text transform="matrix(1 0 0 1 283.1863 187.3333)" fill="#2A3F5F" font-family="'Verdana'" font-size="12">0</text>
			</g>
			<g>
				<text transform="matrix(1 0 0 1 357.3601 187.3333)" fill="#2A3F5F" font-family="'Verdana'" font-size="12">100M</text>
			</g>
			<g>
				<text transform="matrix(1 0 0 1 444.2302 187.3333)" fill="#2A3F5F" font-family="'Verdana'" font-size="12">200M</text>
			</g>
			<g>
				<text transform="matrix(1 0 0 1 531.0896 187.3333)" fill="#2A3F5F" font-family="'Verdana'" font-size="12">300M</text>
			</g>
		</g>
		<g>
			<g>
				<text transform="matrix(1 0 0 1 131.9226 172.7698)" fill="#2A3F5F" font-family="'Verdana'" font-size="12">Musculoskeletal disorders</text>
			</g>
			<g>
				<text transform="matrix(1 0 0 1 52.551 157.5295)" fill="#2A3F5F" font-family="'Verdana'" font-size="12">Respiratory infections and tuberculosis</text>
			</g>
			<g>
				<text transform="matrix(1 0 0 1 91.176 142.3)" fill="#2A3F5F" font-family="'Verdana'" font-size="12">Maternal and neonatal disorders</text>
			</g>
			<g>
				<text transform="matrix(1 0 0 1 220.4402 127.0598)" fill="#2A3F5F" font-family="'Verdana'" font-size="12">Neoplasms</text>
			</g>
			<g>
				<text transform="matrix(1 0 0 1 142.2878 111.8196)" fill="#2A3F5F" font-family="'Verdana'" font-size="12">Cardiovascular diseases</text>
			</g>
		</g>
	</g>
</g>
<g>
	<g>
		<text transform="matrix(1 0 0 1 35.0002 50.0002)" fill="#2A3F5F" font-family="'Verdana'" font-size="17">DALYs (Disability-Adjusted Life Years)</text>
	</g>
</g>
<g>
	<path fill="#9ECAE1" stroke="#FFFFFF" stroke-width="1.5" d="M289.03,174.661v-12.19h120.061v12.19H289.03z"/>
</g>
<g>
	<path fill="#9ECAE1" stroke="#FFFFFF" stroke-width="1.5" d="M289.03,159.421v-12.19h138.711v12.19H289.03z"/>
</g>
<g>
	<path fill="#9ECAE1" stroke="#FFFFFF" stroke-width="1.5" d="M289.03,144.181v-12.189h171.36v12.189H289.03z"/>
</g>
<g>
	<path fill="#9ECAE1" stroke="#FFFFFF" stroke-width="1.5" d="M289.03,128.942v-12.19h201.79v12.19H289.03z"/>
</g>
<g>
	<path fill="#9ECAE1" stroke="#FFFFFF" stroke-width="1.5" d="M289.03,113.701v-12.19h316.351v12.19H289.03z"/>
</g>
</svg>
